<?xml version="1.0" encoding="UTF-8"?>
<svg id="Layer_1" xmlns="http://www.w3.org/2000/svg" version="1.1" viewBox="0 0 130 51">
  <!-- Generator: Adobe Illustrator 29.8.2, SVG Export Plug-In . SVG Version: 2.1.1 Build 3)  -->
  <defs>
    <style>
      .st0 {
        fill: #181e42;
      }

      .st1 {
        isolation: isolate;
      }

      .st2 {
        fill: #fff;
      }
    </style>
  </defs>
  <g id="Group_28">
    <rect id="Rectangle_19" class="st2" width="130" height="51" rx="10" ry="10"/>
    <g id="BACK" class="st1">
      <g class="st1">
        <path class="st0" d="M40.7,32v-12.6h5.7c1.5,0,2.6.3,3.3.9.8.6,1.2,1.4,1.2,2.4s-.2,1.3-.5,1.7-.7.8-1.2,1.1c-.5.3-1.1.4-1.7.4l.3-.5c.7,0,1.4.1,1.9.4.6.3,1,.6,1.3,1.1.3.5.5,1.1.5,1.8,0,1.1-.4,1.9-1.2,2.5-.8.6-2,.9-3.6.9h-6ZM42.5,30.5h4.1c1,0,1.8-.2,2.3-.5.5-.3.8-.9.8-1.6s-.3-1.3-.8-1.6c-.5-.3-1.3-.5-2.3-.5h-4.3v-1.5h3.9c.9,0,1.6-.2,2.1-.5s.8-.8.8-1.5-.3-1.2-.8-1.5-1.2-.5-2.1-.5h-3.7v9.7Z"/>
        <path class="st0" d="M52.4,32l5.7-12.6h1.8l5.7,12.6h-1.9l-5.1-11.6h.7l-5.1,11.6h-1.9ZM54.8,28.8l.5-1.4h7.1l.5,1.4h-8.1Z"/>
        <path class="st0" d="M72.9,32.1c-1,0-1.8-.2-2.7-.5-.8-.3-1.5-.8-2.1-1.3s-1.1-1.3-1.4-2c-.3-.8-.5-1.6-.5-2.6s.2-1.8.5-2.6c.3-.8.8-1.5,1.4-2,.6-.6,1.3-1,2.1-1.3.8-.3,1.7-.5,2.7-.5s1.9.2,2.7.5c.8.3,1.5.8,2.1,1.5l-1.2,1.1c-.5-.5-1-.9-1.6-1.1-.6-.2-1.2-.4-1.9-.4s-1.4.1-2,.4c-.6.2-1.1.6-1.6,1-.4.4-.8.9-1,1.5-.2.6-.4,1.2-.4,1.9s.1,1.3.4,1.9c.2.6.6,1.1,1,1.5.4.4,1,.8,1.6,1,.6.2,1.3.4,2,.4s1.3-.1,1.9-.4c.6-.2,1.1-.6,1.6-1.1l1.2,1.1c-.6.6-1.3,1.1-2.1,1.5-.8.3-1.7.5-2.7.5Z"/>
        <path class="st0" d="M80.1,32v-12.6h1.8v12.6h-1.8ZM81.7,29v-2.2c0,0,7.1-7.4,7.1-7.4h2.1l-5.5,5.8-1,1.1-2.6,2.6ZM89.1,32l-5.2-6,1.2-1.3,6.1,7.3h-2.1Z"/>
      </g>
    </g>
  </g>
</svg>